<svg width="8" height="17" viewBox="0 0 8 17" fill="none" xmlns="http://www.w3.org/2000/svg">
<path d="M0.355291 1.09798C0.242666 1.23064 0.153312 1.38821 0.0923468 1.56167C0.0313812 1.73513 0 1.92108 0 2.10888C0 2.29667 0.0313812 2.48262 0.0923468 2.65609C0.153312 2.82955 0.242666 2.98712 0.355291 3.11977L5.06911 8.68329L0.355291 14.2468C0.128132 14.5149 0.000514428 14.8785 0.000514428 15.2577C0.000514428 15.6369 0.128132 16.0005 0.355291 16.2686C0.582451 16.5367 0.890546 16.6873 1.2118 16.6873C1.53305 16.6873 1.84114 16.5367 2.0683 16.2686L7.64471 9.68701C7.75734 9.55436 7.84669 9.39679 7.90765 9.22333C7.96862 9.04986 8 8.86391 8 8.67612C8 8.48832 7.96862 8.30237 7.90765 8.12891C7.84669 7.95545 7.75734 7.79788 7.64471 7.66522L2.0683 1.08364C1.60664 0.538763 0.829104 0.538763 0.355291 1.09798Z" fill="black" fill-opacity="0.73"/>
</svg>
