<svg width="17" height="27" viewBox="0 0 17 27" fill="none" xmlns="http://www.w3.org/2000/svg">
<path fill-rule="evenodd" clip-rule="evenodd" d="M6.42057 2.20807C7.77435 0.854295 9.61047 0.09375 11.525 0.09375H15.2375C15.807 0.09375 16.2687 0.555456 16.2687 1.125V6.075C16.2687 6.64454 15.807 7.10625 15.2375 7.10625H11.525C11.4703 7.10625 11.4178 7.12798 11.3792 7.16666C11.3405 7.20534 11.3187 7.2578 11.3187 7.3125V9.99375H15.2375C15.5551 9.99375 15.8549 10.1401 16.0503 10.3904C16.2458 10.6407 16.315 10.967 16.238 11.2751L15.0005 16.2251C14.8857 16.6842 14.4732 17.0062 14 17.0062H11.3187V25.875C11.3187 26.4445 10.857 26.9062 10.2875 26.9062H5.3375C4.76796 26.9062 4.30625 26.4445 4.30625 25.875V17.0062H1.625C1.05546 17.0062 0.59375 16.5445 0.59375 15.975V11.025C0.59375 10.4555 1.05546 9.99375 1.625 9.99375H4.30625V7.3125C4.30625 5.39797 5.06679 3.56185 6.42057 2.20807ZM11.525 2.15625C10.1575 2.15625 8.84596 2.6995 7.87898 3.66648C6.912 4.63346 6.36875 5.94498 6.36875 7.3125V11.025C6.36875 11.5945 5.90704 12.0562 5.3375 12.0562H2.65625V14.9437H5.3375C5.90704 14.9437 6.36875 15.4055 6.36875 15.975V24.8438H9.25625V15.975C9.25625 15.4055 9.71796 14.9437 10.2875 14.9437H13.1948L13.9167 12.0562H10.2875C9.71796 12.0562 9.25625 11.5945 9.25625 11.025V7.3125C9.25625 6.71079 9.49528 6.13372 9.92075 5.70825C10.3462 5.28278 10.9233 5.04375 11.525 5.04375H14.2062V2.15625H11.525Z" fill="white"/>
</svg>
