<svg width="27" height="27" viewBox="0 0 27 27" fill="none" xmlns="http://www.w3.org/2000/svg">
<path d="M18.9999 6.62476C18.9999 5.86537 19.6156 5.24976 20.3749 5.24976C21.1343 5.24976 21.7499 5.86537 21.7499 6.62476C21.7499 7.38415 21.1343 7.99976 20.3749 7.99976C19.6156 7.99976 18.9999 7.38415 18.9999 6.62476Z" fill="white"/>
<path fill-rule="evenodd" clip-rule="evenodd" d="M13.4999 6.96851C9.89284 6.96851 6.9687 9.89265 6.9687 13.4998C6.9687 17.1069 9.89284 20.031 13.4999 20.031C17.1071 20.031 20.0312 17.1069 20.0312 13.4998C20.0312 9.89265 17.1071 6.96851 13.4999 6.96851ZM9.0312 13.4998C9.0312 11.0317 11.0319 9.03101 13.4999 9.03101C15.968 9.03101 17.9687 11.0317 17.9687 13.4998C17.9687 15.9678 15.968 17.9685 13.4999 17.9685C11.0319 17.9685 9.0312 15.9678 9.0312 13.4998Z" fill="white"/>
<path fill-rule="evenodd" clip-rule="evenodd" d="M20.73 0.895154C15.9635 0.362423 11.0364 0.362423 6.26988 0.895154C3.5033 1.20436 1.26984 3.38375 0.944582 6.16473C0.374592 11.0381 0.374592 15.9614 0.944582 20.8348C1.26984 23.6158 3.5033 25.7952 6.26988 26.1044C11.0364 26.6371 15.9635 26.6371 20.73 26.1044C23.4966 25.7952 25.7301 23.6158 26.0553 20.8348C26.6253 15.9614 26.6253 11.0381 26.0553 6.16473C25.7301 3.38375 23.4966 1.20436 20.73 0.895154ZM6.49897 2.94489C11.1133 2.42918 15.8867 2.42918 20.501 2.94489C22.3299 3.1493 23.7949 4.59252 24.0068 6.40432C24.5582 11.1185 24.5582 15.881 24.0068 20.5952C23.7949 22.407 22.3299 23.8502 20.501 24.0546C15.8867 24.5703 11.1133 24.5703 6.49897 24.0546C4.67007 23.8502 3.20503 22.407 2.99312 20.5952C2.44175 15.881 2.44175 11.1185 2.99312 6.40432C3.20503 4.59252 4.67007 3.1493 6.49897 2.94489Z" fill="white"/>
</svg>
