<svg width="50" height="50" viewBox="0 0 50 50" fill="none" xmlns="http://www.w3.org/2000/svg">
<circle cx="25" cy="25" r="25" fill="url(#paint0_linear_315_413)"/>
<path fill-rule="evenodd" clip-rule="evenodd" d="M23.6524 4.26831L33.7168 17.3095V13.1976H38.29V23.2353L45.7849 32.947L44.8194 33.6921L23.6593 6.27327L2.79962 33.6888L1.8291 32.9504L23.6524 4.26831ZM37.0705 21.6551V14.4171H34.9363V18.8897L37.0705 21.6551Z" fill="black"/>
<path fill-rule="evenodd" clip-rule="evenodd" d="M9.63188 22.9536H11.1562H35.3661L36.2808 24.1731H10.8514L10.8514 28.7463H37.8984V40.2848H9.63184L9.63187 24.8957L9.63188 22.9536ZM10.8513 29.9658V39.0652H36.6789V29.9658H10.8513Z" fill="black"/>
<path fill-rule="evenodd" clip-rule="evenodd" d="M24.8721 3.65845L34.9365 16.6997V12.5878H39.5097V22.6255L47.0046 32.3372L46.0392 33.0822L24.879 5.66341L4.01935 33.0789L3.04883 32.3405L24.8721 3.65845ZM38.2902 21.0452V13.8073H36.156V18.2799L38.2902 21.0452Z" fill="white"/>
<path fill-rule="evenodd" clip-rule="evenodd" d="M10.8511 22.344H12.3755H35.6707L36.5854 23.5635H12.0706L12.0706 28.1367H39.1176V39.6751H10.8511L10.8511 24.2861L10.8511 22.344ZM12.0706 29.3562V38.4556H37.8981V29.3562H12.0706Z" fill="white"/>
<defs>
<linearGradient id="paint0_linear_315_413" x1="25" y1="0" x2="25" y2="50" gradientUnits="userSpaceOnUse">
<stop stop-color="#00ACFF"/>
<stop offset="1" stop-color="#14FF00"/>
</linearGradient>
</defs>
</svg>
