<svg width="29" height="25" viewBox="0 0 29 25" fill="none" xmlns="http://www.w3.org/2000/svg">
<path fill-rule="evenodd" clip-rule="evenodd" d="M6.95783 15.277C7.01802 15.2972 7.07877 15.3116 7.13946 15.3205C7.20565 15.476 7.29117 15.6772 7.39093 15.9125C7.63441 16.4867 7.96247 17.2634 8.3011 18.0736C8.99169 19.7259 9.68828 21.4292 9.84213 21.9167C10.0326 22.5194 10.2339 22.9291 10.4537 23.2089C10.5673 23.3535 10.6987 23.4799 10.8525 23.5755C10.9299 23.6236 11.0117 23.6631 11.0971 23.6925C11.1008 23.6938 11.1046 23.6951 11.1083 23.6964C11.5484 23.8625 11.9495 23.7933 12.2007 23.7087C12.3351 23.6634 12.4438 23.6087 12.5209 23.5644C12.5602 23.5418 12.5934 23.5207 12.6199 23.5029L12.6261 23.4987L16.5122 21.0753L21.0009 24.5167C21.0671 24.5675 21.1393 24.61 21.2159 24.6434C21.7551 24.8788 22.2773 24.9608 22.7686 24.8937C23.2589 24.8268 23.6483 24.6207 23.9381 24.3889C24.2219 24.1618 24.4143 23.9075 24.5341 23.7185C24.5953 23.622 24.6413 23.5366 24.6737 23.4713C24.6899 23.4384 24.703 23.4101 24.7131 23.3874L24.7261 23.3574L24.731 23.3456L24.733 23.3406L24.734 23.3383L24.7348 23.3361C24.7584 23.2772 24.7765 23.2161 24.7889 23.1538L28.8867 2.49377C28.8998 2.42769 28.9064 2.36049 28.9064 2.29313C28.9064 1.68812 28.6784 1.11281 28.1424 0.763709C27.6843 0.465337 27.1739 0.452494 26.8514 0.476976C26.5034 0.503385 26.1821 0.589277 25.9664 0.657912C25.8542 0.693631 25.7601 0.728094 25.6923 0.754385C25.6582 0.767599 25.6303 0.778936 25.6094 0.787582L25.5938 0.794164L2.61244 9.80941L2.60947 9.81048C2.59482 9.81581 2.57602 9.82283 2.55367 9.83153C2.50917 9.84885 2.44955 9.87327 2.3799 9.90483C2.24407 9.96639 2.05352 10.0626 1.85799 10.1965C1.5456 10.4104 0.82718 10.9963 0.948154 11.9634C1.04466 12.7348 1.57319 13.2086 1.8952 13.4365C2.07201 13.5616 2.23999 13.6511 2.36232 13.7093C2.41908 13.7363 2.53691 13.7842 2.58804 13.805L2.60094 13.8102L6.95783 15.277ZM26.3981 2.69331L26.3949 2.69471C26.3834 2.69968 26.3719 2.70445 26.3603 2.70901L3.35102 11.7352C3.33901 11.7399 3.3269 11.7444 3.31472 11.7487L3.30191 11.7535C3.2872 11.7592 3.26241 11.7693 3.23131 11.7834C3.21367 11.7914 3.19526 11.8001 3.1765 11.8095C3.20228 11.824 3.22696 11.8366 3.24888 11.8471C3.26993 11.8571 3.28599 11.8639 3.29478 11.8675L7.6159 13.3223C7.69499 13.3489 7.76872 13.3842 7.83639 13.4267L22.1045 5.07428L22.1178 5.06639C22.1282 5.06025 22.1418 5.05235 22.1582 5.04311C22.1907 5.02475 22.2353 5.00031 22.2884 4.9733C22.3874 4.9229 22.5458 4.84808 22.7243 4.79292C22.8486 4.75451 23.215 4.64632 23.6111 4.77337C23.8556 4.85179 24.1087 5.02038 24.2734 5.30598C24.3552 5.44786 24.3988 5.59039 24.4199 5.72086C24.4759 5.9264 24.467 6.12936 24.4232 6.30458C24.3286 6.68203 24.0634 6.97645 23.8221 7.20164C23.6154 7.39471 20.9405 9.97401 18.3017 12.5202C16.9857 13.7899 15.6832 15.0471 14.7096 15.9869L14.0702 16.6042L22.1441 22.7943C22.3293 22.8606 22.4387 22.8571 22.4894 22.8502C22.5497 22.842 22.5991 22.8188 22.6496 22.7784C22.706 22.7332 22.7553 22.6723 22.7922 22.6142L22.7937 22.6118L26.7681 2.5739C26.7091 2.58808 26.6495 2.60496 26.592 2.62326C26.5269 2.64398 26.4732 2.66371 26.4376 2.67751C26.42 2.68434 26.4073 2.68952 26.4004 2.69238L26.3981 2.69331ZM14.7638 19.7349L13.153 18.5L12.7627 20.9828L14.7638 19.7349ZM11.6754 16.0494L13.2772 14.503C14.2508 13.5632 15.5535 12.3058 16.8695 11.036L18.2067 9.74588L9.24169 14.994L9.2898 15.1074C9.53414 15.6837 9.86366 16.4637 10.2041 17.2783C10.4586 17.8873 10.7248 18.5286 10.9673 19.1223L11.3564 16.6468C11.394 16.4081 11.5106 16.2015 11.6754 16.0494Z" fill="white"/>
</svg>
