<svg width="100" height="100" viewBox="0 0 100 100" fill="none" xmlns="http://www.w3.org/2000/svg">
<path d="M29.166 83.333C29.166 76.4294 38.4934 70.833 49.9993 70.833C61.5053 70.833 70.8327 76.4294 70.8327 83.333" stroke="#14181F" stroke-width="6" stroke-linecap="round" stroke-linejoin="round"/>
<path d="M50 58.333C56.9036 58.333 62.5 52.7366 62.5 45.833C62.5 38.9294 56.9036 33.333 50 33.333C43.0964 33.333 37.5 38.9294 37.5 45.833C37.5 52.7366 43.0964 58.333 50 58.333Z" stroke="#14181F" stroke-width="6" stroke-linecap="round" stroke-linejoin="round"/>
<path d="M12.5 20.8333C12.5 16.231 16.231 12.5 20.8333 12.5H79.1667C83.769 12.5 87.5 16.231 87.5 20.8333V79.1667C87.5 83.769 83.769 87.5 79.1667 87.5H20.8333C16.231 87.5 12.5 83.769 12.5 79.1667V20.8333Z" stroke="#14181F" stroke-width="6" stroke-linecap="round" stroke-linejoin="round"/>
</svg>
