<svg width="29" height="29" viewBox="0 0 29 29" fill="none" xmlns="http://www.w3.org/2000/svg">
<path d="M10.2183 7.85854C10.4698 7.86529 10.7487 7.87889 11.0141 8.46791C11.1901 8.86003 11.4865 9.58191 11.7279 10.17C11.9158 10.6275 12.0705 11.0041 12.1091 11.0811C12.1976 11.2571 12.252 11.4602 12.1364 11.6971C12.1227 11.7251 12.1098 11.7518 12.0974 11.7775C12.0047 11.97 11.9387 12.107 11.7827 12.2862C11.7186 12.3598 11.6518 12.4405 11.5852 12.521C11.4681 12.6624 11.3518 12.803 11.2521 12.9023C11.0753 13.0782 10.8916 13.2679 11.0956 13.6199C11.2998 13.9719 12.014 15.1296 13.0683 16.0638C14.2017 17.0729 15.1873 17.4982 15.6855 17.7132C15.7823 17.7549 15.8606 17.7887 15.9181 17.8173C16.2719 17.9933 16.4827 17.9662 16.6868 17.7293C16.8909 17.4923 17.571 16.7002 17.8091 16.3482C18.0404 15.9962 18.2784 16.0504 18.605 16.1722C18.9314 16.294 20.6727 17.147 21.0263 17.323C21.0963 17.3578 21.1616 17.3892 21.2223 17.4183C21.4683 17.5363 21.6356 17.6165 21.7065 17.7361C21.795 17.885 21.795 18.5891 21.5025 19.415C21.2033 20.241 19.7612 21.0331 19.1082 21.094C19.0464 21.0998 18.9849 21.1072 18.9216 21.1149C18.3232 21.1873 17.5635 21.2792 14.8571 20.2139C11.5222 18.9024 9.32076 15.6487 8.87568 14.9908C8.84055 14.9389 8.81636 14.9031 8.80342 14.8858L8.79589 14.8757C8.59339 14.6048 7.35459 12.9472 7.35459 11.2369C7.35459 9.60063 8.16065 8.74874 8.5283 8.36017C8.5516 8.33555 8.57314 8.31278 8.59261 8.2918C8.91904 7.9398 9.30003 7.8518 9.53805 7.8518C9.77619 7.8518 10.0142 7.8518 10.2183 7.85854Z" fill="white"/>
<path fill-rule="evenodd" clip-rule="evenodd" d="M1.00332 27.3307C0.890826 27.7391 1.26275 28.116 1.67256 28.0089L8.00766 26.3542C10.0074 27.4374 12.2588 28.0129 14.5511 28.0129H14.5579C22.1011 28.0129 28.2501 21.8995 28.2501 14.3849C28.2501 10.7426 26.8284 7.31692 24.2437 4.74425C21.6591 2.1717 18.2241 0.75 14.5578 0.75C7.01468 0.75 0.865724 6.86332 0.865724 14.3781C0.864866 16.7687 1.49588 19.1175 2.69541 21.1887L1.00332 27.3307ZM4.68384 21.7365C4.83071 21.2033 4.75734 20.6335 4.48019 20.155C3.46248 18.3978 2.9275 16.405 2.92822 14.3781C2.92822 8.01218 8.14397 2.8125 14.5578 2.8125C17.6789 2.8125 20.5907 4.01835 22.7887 6.20607C24.9842 8.39138 26.1876 11.2909 26.1876 14.3849C26.1876 20.7506 20.9719 25.9504 14.5579 25.9504H14.5511C12.6034 25.9504 10.6894 25.4612 8.98999 24.5407C8.53002 24.2915 7.99256 24.2265 7.48642 24.3587L3.68812 25.3508L4.68384 21.7365Z" fill="white"/>
</svg>
